<svg width="21" height="21" viewBox="0 0 21 21" fill="none" xmlns="http://www.w3.org/2000/svg">
<g clip-path="url(#clip0_5_150)">
<path fill-rule="evenodd" clip-rule="evenodd" d="M8.83312 16.0453C4.70531 16.0453 1.3591 12.7575 1.3591 8.69531C1.3591 4.63313 4.70531 1.33878 8.83312 1.33878C12.9609 1.33878 16.3078 4.63313 16.3078 8.69531C16.3078 12.7575 12.9609 16.0453 8.83312 16.0453ZM20.7952 19.8516L15.3753 14.5162C16.7941 12.9741 17.6663 10.9397 17.6663 8.69531C17.6663 3.89156 13.7117 0 8.83312 0C3.95456 0 0 3.89156 0 8.69531C0 13.4925 3.95456 17.3841 8.83312 17.3841C10.941 17.3841 12.8743 16.6556 14.3929 15.4416L19.8345 20.7965C20.1003 21.059 20.5301 21.059 20.7952 20.7965C21.061 20.5406 21.061 20.1141 20.7952 19.8516Z" fill="#515458"/>
</g>
<defs>
<clipPath id="clip0_5_150">
<rect width="21" height="21" fill="white"/>
</clipPath>
</defs>
</svg>
